<?xml version="1.0" encoding="UTF-8" standalone="no"?>
<!-- Created with Inkscape (http://www.inkscape.org/) -->

<svg
   xmlns:dc="http://purl.org/dc/elements/1.1/"
   xmlns:cc="http://creativecommons.org/ns#"
   xmlns:rdf="http://www.w3.org/1999/02/22-rdf-syntax-ns#"
   xmlns:svg="http://www.w3.org/2000/svg"
   xmlns="http://www.w3.org/2000/svg"
   xmlns:sodipodi="http://sodipodi.sourceforge.net/DTD/sodipodi-0.dtd"
   xmlns:inkscape="http://www.inkscape.org/namespaces/inkscape"
   width="210mm"
   height="297mm"
   viewBox="0 0 744.09448819 1052.3622047"
   id="svg4194"
   version="1.1"
   inkscape:version="0.91 r13725"
   sodipodi:docname="intro_game_logo.svg"
   inkscape:export-filename="C:\Users\Piotrek\Git\tequila-platformer\res\Other\intro_game_logo.png"
   inkscape:export-xdpi="90"
   inkscape:export-ydpi="90">
  <defs
     id="defs4196" />
  <sodipodi:namedview
     id="base"
     pagecolor="#ffffff"
     bordercolor="#666666"
     borderopacity="1.0"
     inkscape:pageopacity="0.0"
     inkscape:pageshadow="2"
     inkscape:zoom="0.7"
     inkscape:cx="300.85311"
     inkscape:cy="809.8257"
     inkscape:document-units="px"
     inkscape:current-layer="layer1"
     showgrid="true"
     inkscape:window-width="1366"
     inkscape:window-height="706"
     inkscape:window-x="-8"
     inkscape:window-y="-8"
     inkscape:window-maximized="1">
    <inkscape:grid
       type="xygrid"
       id="grid4782" />
  </sodipodi:namedview>
  <metadata
     id="metadata4199">
    <rdf:RDF>
      <cc:Work
         rdf:about="">
        <dc:format>image/svg+xml</dc:format>
        <dc:type
           rdf:resource="http://purl.org/dc/dcmitype/StillImage" />
        <dc:title></dc:title>
      </cc:Work>
    </rdf:RDF>
  </metadata>
  <g
     inkscape:label="Layer 1"
     inkscape:groupmode="layer"
     id="layer1">
    <g
       transform="matrix(2.3519529,0,0,2.3519529,-305.85894,-241.28057)"
       style="font-style:normal;font-variant:normal;font-weight:normal;font-stretch:normal;font-size:80.35372925px;line-height:125%;font-family:'Cowboy Hippie Pro';-inkscape-font-specification:'Cowboy Hippie Pro, Normal';text-align:start;letter-spacing:0px;word-spacing:0px;writing-mode:lr-tb;text-anchor:start;fill:#0b1728;fill-opacity:1;stroke:#9955ff;stroke-width:2;stroke-linecap:butt;stroke-linejoin:miter;stroke-miterlimit:4;stroke-dasharray:none;stroke-opacity:1"
       id="text3386"
       inkscape:export-xdpi="90"
       inkscape:export-ydpi="90">
      <path
         inkscape:connector-curvature="0"
         d="m 206.05129,153.91708 0,-30.85583 10.28528,0 0,-15.42791 -25.71319,0 0,15.42791 10.28527,0 0,30.85583 5.14264,0 z"
         id="path4141" />
      <path
         inkscape:connector-curvature="0"
         d="m 247.25392,153.91708 0,-15.42792 -20.57055,0 0,-5.14263 15.42791,0 0,-5.14264 -15.42791,0 0,-5.14264 20.57055,0 0,-15.42791 -25.71319,0 0,46.28374 25.71319,0 z"
         id="path4143" />
      <path
         inkscape:connector-curvature="0"
         d="m 267.886,133.34653 -5.14264,0 0,5.14263 c -2.89273,0 -5.14264,-2.2499 -5.14264,-5.14263 l 0,-5.14264 c 0,-2.81238 2.33026,-5.14264 5.14264,-5.14264 l 5.14264,0 c 2.73202,0 5.14264,2.41061 5.14264,5.14264 l 0,5.14264 c 0,2.81238 -2.33026,5.14263 -5.14264,5.14263 l 0,-5.14263 z m 0,30.85583 0,-10.28528 5.14264,0 c 2.81238,0 5.14264,-2.2499 5.14264,-5.14264 l 0,-35.99847 c 0,-2.73203 -2.33026,-5.14263 -5.14264,-5.14263 l -15.42792,0 c -2.81238,0 -5.14264,2.33025 -5.14264,5.14263 l 0,35.99847 c 0,2.89274 2.24991,5.14264 5.14264,5.14264 l 5.14264,0 0,10.28528 5.14264,0 z"
         id="path4145" />
      <path
         inkscape:connector-curvature="0"
         d="m 303.94599,153.91708 c 2.81238,0 5.14264,-2.2499 5.14264,-5.14264 l 0,-41.1411 -5.14264,0 0,25.71319 c 0,2.81238 -2.33026,5.14263 -5.14264,5.14263 l -5.14264,0 c -2.89273,0 -5.14263,-2.2499 -5.14263,-5.14263 l 0,-25.71319 -5.14264,0 0,41.1411 c 0,2.89274 2.2499,5.14264 5.14264,5.14264 l 15.42791,0 z"
         id="path4147" />
      <path
         inkscape:connector-curvature="0"
         d="m 329.7207,153.91708 0,-15.42792 -5.14264,0 0,-15.42791 5.14264,0 0,-15.42791 -15.42791,0 0,15.42791 5.14264,0 0,15.42791 -5.14264,0 0,15.42792 15.42791,0 z"
         id="path4149" />
      <path
         inkscape:connector-curvature="0"
         d="m 355.4226,153.91708 0,-15.42792 -15.42792,0 0,-30.85582 -5.14264,0 0,46.28374 20.57056,0 z"
         id="path4151" />
      <path
         inkscape:connector-curvature="0"
         d="m 365.73298,128.20389 c 0,-2.81238 2.33026,-5.14264 5.14264,-5.14264 l 5.14264,0 c 2.73202,0 5.14264,2.41061 5.14264,5.14264 l -15.42792,0 z m 0,25.71319 0,-20.57055 15.42792,0 0,20.57055 5.14263,0 0,-41.14111 c 0,-2.73203 -2.33025,-5.14263 -5.14263,-5.14263 l -15.42792,0 c -2.81238,0 -5.14264,2.33025 -5.14264,5.14263 l 0,41.14111 5.14264,0 z"
         id="path4153" />
      <path
         inkscape:connector-curvature="0"
         d="m 139.41956,189.76422 0,-5.14264 12.8566,0 c 1.36601,0 2.57132,1.2053 2.57132,2.57132 0,1.36601 -1.12495,2.57132 -2.57132,2.57132 l -12.8566,0 z m 0,25.71319 0,-20.57055 15.42792,0 c 2.81238,0 5.14264,-2.24991 5.14264,-5.14264 l 0,-15.42792 c 0,-2.73203 -2.33026,-5.14264 -5.14264,-5.14264 l -20.57056,0 0,46.28375 5.14264,0 z"
         id="path4155" />
      <path
         inkscape:connector-curvature="0"
         d="m 185.33751,215.84214 0,-15.42792 -15.42792,0 0,-30.85582 -5.14264,0 0,46.28374 20.57056,0 z"
         id="path4157" />
      <path
         inkscape:connector-curvature="0"
         d="m 196.40331,190.19153 c 0,-2.81238 2.33026,-5.14264 5.14264,-5.14264 l 5.14264,0 c 2.73203,0 5.14264,2.41061 5.14264,5.14264 l -15.42792,0 z m 0,25.71319 0,-20.57055 15.42792,0 0,20.57055 5.14264,0 0,-41.14111 c 0,-2.73203 -2.33026,-5.14264 -5.14264,-5.14264 l -15.42792,0 c -2.81238,0 -5.14264,2.33026 -5.14264,5.14264 l 0,41.14111 5.14264,0 z"
         id="path4159" />
      <path
         inkscape:connector-curvature="0"
         d="m 237.84551,216.57163 0,-30.85583 10.28527,0 0,-15.42792 -25.71319,0 0,15.42792 10.28528,0 0,30.85583 5.14264,0 z"
         id="path4161" />
      <path
         inkscape:connector-curvature="0"
         d="m 258.77975,217.15004 0,-20.57055 15.42791,0 0,-5.14264 -15.42791,0 0,-5.14264 20.57055,0 0,-15.42792 -25.71319,0 0,46.28375 5.14264,0 z"
         id="path4163" />
      <path
         inkscape:connector-curvature="0"
         d="m 293.70887,201.41995 c -2.89274,0 -5.14264,-2.2499 -5.14264,-5.14263 l 0,-5.14264 c 0,-2.81238 2.33025,-5.14264 5.14264,-5.14264 l 5.14263,0 c 2.73203,0 5.14264,2.41061 5.14264,5.14264 l 0,5.14264 c 0,2.81238 -2.33026,5.14263 -5.14264,5.14263 l -5.14263,0 z m 10.28527,15.42792 c 2.81238,0 5.14264,-2.2499 5.14264,-5.14264 l 0,-35.99847 c 0,-2.73203 -2.33026,-5.14264 -5.14264,-5.14264 l -15.42791,0 c -2.81238,0 -5.14264,2.33026 -5.14264,5.14264 l 0,35.99847 c 0,2.89274 2.2499,5.14264 5.14264,5.14264 l 15.42791,0 z"
         id="path4165" />
      <path
         inkscape:connector-curvature="0"
         d="m 318.38936,191.19727 0,-5.14264 12.85659,0 c 1.36602,0 2.57132,1.2053 2.57132,2.57132 0,1.36601 -1.12495,2.57132 -2.57132,2.57132 l -12.85659,0 z m 0,25.71319 0,-20.57055 10.28527,0 c 2.73203,0 5.14264,2.41061 5.14264,5.14263 l 0,15.42792 5.14264,0 0,-20.57055 c 0,-1.36602 -1.20531,-2.57132 -2.57132,-2.57132 1.44637,0 2.57132,-1.20531 2.57132,-2.57132 l 0,-15.42792 c 0,-2.73203 -2.33026,-5.14264 -5.14264,-5.14264 l -20.57055,0 0,46.28375 5.14264,0 z"
         id="path4167" />
      <path
         inkscape:connector-curvature="0"
         d="m 348.84272,216.69679 0,-28.28451 c 0,-1.44637 1.20531,-2.57132 2.57132,-2.57132 1.36602,0 2.57132,1.2053 2.57132,2.57132 l 0,23.14187 c 0,2.89274 2.24991,5.14264 5.14264,5.14264 l 5.14264,0 c 2.81238,0 5.14264,-2.2499 5.14264,-5.14264 l 0,-23.14187 c 0,-1.44637 1.2053,-2.57132 2.57132,-2.57132 1.36601,0 2.57132,1.2053 2.57132,2.57132 l 0,28.28451 5.14264,0 0,-46.28375 -10.28528,0 c -2.81238,0 -5.14264,2.33026 -5.14264,5.14264 l 0,23.14188 c 0,1.36601 -1.12495,2.57131 -2.57132,2.57131 -1.52672,0 -2.57132,-1.04459 -2.57132,-2.57131 l 0,-23.14188 c 0,-2.73203 -2.33026,-5.14264 -5.14264,-5.14264 l -10.28528,0 0,46.28375 5.14264,0 z"
         id="path4169" />
      <path
         inkscape:connector-curvature="0"
         d="m 410.85986,217.06154 0,-15.42792 -20.57056,0 0,-5.14263 15.42792,0 0,-5.14264 -15.42792,0 0,-5.14264 20.57056,0 0,-15.42792 -25.7132,0 0,46.28375 25.7132,0 z"
         id="path4171" />
      <path
         inkscape:connector-curvature="0"
         d="m 420.44052,191.19727 0,-5.14264 12.8566,0 c 1.36601,0 2.57132,1.2053 2.57132,2.57132 0,1.36601 -1.12495,2.57132 -2.57132,2.57132 l -12.8566,0 z m 0,25.71319 0,-20.57055 10.28528,0 c 2.73203,0 5.14264,2.41061 5.14264,5.14263 l 0,15.42792 5.14264,0 0,-20.57055 c 0,-1.36602 -1.20531,-2.57132 -2.57132,-2.57132 1.44636,0 2.57132,-1.20531 2.57132,-2.57132 l 0,-15.42792 c 0,-2.73203 -2.33026,-5.14264 -5.14264,-5.14264 l -20.57056,0 0,46.28375 5.14264,0 z"
         id="path4173" />
    </g>
  </g>
</svg>
